# xmcd CD database file
#
# Track frame offsets:
#	150
#	13314
#	27653
#	39737
#	52885
#	61960
#	70589
#	77938
#	92544
#
# Disc length: 1335 seconds
#
# Revision: 0
# Processed by: cddbd v1.5.2PL0 Copyright (c) Steve Scherf et al.
# Submitted via: CDex 1.87
#
DISCID=72053509
DTITLE=Johnnie Selfish and The Worried Men - Calle Salvaje
DYEAR=2015
DGENRE=Country
TTITLE0=Vaquerito
TTITLE1=Lost Sally Blues
TTITLE2=El Gringo
TTITLE3=Teresita
TTITLE4=Alone and Forsaken
TTITLE5=Cul De Sac
TTITLE6=Mapache
TTITLE7=Stranger In Paris
TTITLE8=Working On A Building
EXTD=YEAR: 2015
EXTT0=
EXTT1=
EXTT2=
EXTT3=
EXTT4=
EXTT5=
EXTT6=
EXTT7=
EXTT8=
PLAYORDER=
